<?xml version="1.0" standalone="no"?>
<!DOCTYPE svg PUBLIC "-//W3C//DTD SVG 20010904//EN"
 "http://www.w3.org/TR/2001/REC-SVG-20010904/DTD/svg10.dtd">
<svg version="1.0" xmlns="http://www.w3.org/2000/svg"
 width="2592.000000pt" height="1728.000000pt" viewBox="0 0 2592.000000 1728.000000"
 preserveAspectRatio="xMidYMid meet">
<metadata>
Created by potrace 1.11, written by Peter Selinger 2001-2013
</metadata>
<g transform="translate(0.000000,1728.000000) scale(0.100000,-0.100000)"
fill="#000000" stroke="none">
<path d="M12175 16774 c-235 -12 -442 -27 -595 -44 -2496 -274 -4698 -1685
-5993 -3841 -614 -1023 -980 -2161 -1093 -3399 -18 -206 -29 -850 -17 -1055
l8 -140 185 -3 185 -2 -8 127 c-12 189 -1 878 17 1073 97 1019 355 1909 815
2805 109 214 338 605 353 605 16 0 7 -20 -51 -112 -148 -235 -359 -636 -486
-923 -339 -766 -540 -1571 -617 -2470 -14 -167 -18 -979 -5 -1057 l8 -48 7569
0 7569 0 8 48 c4 26 8 245 8 487 -1 446 -9 597 -51 935 -119 961 -424 1895
-892 2733 -33 59 -56 109 -51 112 4 3 14 -5 22 -17 39 -62 124 -221 204 -383
424 -847 678 -1743 769 -2715 19 -204 30 -877 17 -1072 l-8 -128 181 0 c164 0
183 2 189 18 13 33 18 732 6 937 -76 1307 -428 2481 -1079 3595 -596 1022
-1452 1926 -2457 2597 -146 97 -430 273 -441 273 -3 0 -38 20 -77 43 -40 24
-119 68 -177 98 -58 30 -123 67 -145 82 -22 15 -76 41 -120 58 -43 17 -90 39
-103 50 -14 10 -31 19 -39 19 -7 0 -87 31 -176 69 -832 356 -1712 569 -2617
631 -161 11 -693 20 -815 14z m419 -253 c39 -26 55 -57 56 -104 1 -118 -134
-168 -215 -81 -30 33 -35 110 -9 150 36 53 115 70 168 35z m263 -121 l43 -45
0 83 c0 72 2 82 18 82 16 0 17 -10 14 -107 -2 -60 -7 -114 -11 -121 -6 -10
-30 12 -82 72 -83 97 -86 96 -88 -16 -1 -45 -5 -58 -16 -58 -17 0 -20 77 -8
189 l6 63 41 -49 c22 -26 60 -68 83 -93z m-812 -20 c41 -82 43 -90 25 -90 -12
0 -25 10 -32 25 -10 22 -17 25 -63 25 -49 0 -53 -2 -65 -30 -8 -18 -20 -30
-31 -30 -21 0 -24 -12 43 155 11 28 24 61 29 74 l10 25 20 -33 c10 -17 39 -72
64 -121z m-357 92 c3 -20 1 -21 -23 -12 -55 21 -115 -22 -115 -84 0 -40 21
-70 59 -86 25 -10 35 -9 62 4 41 20 41 20 37 -6 -2 -17 -13 -25 -39 -32 -48
-12 -85 -1 -120 34 -24 24 -29 37 -29 80 0 28 5 60 11 71 30 57 150 80 157 31z
m1661 3 c30 -15 61 -69 61 -104 0 -37 -26 -86 -56 -106 -33 -21 -98 -24 -132
-6 -31 16 -62 69 -62 104 0 42 28 95 59 112 34 19 95 19 130 0z m-1949 -31
c88 -53 74 -186 -24 -223 -107 -41 -208 85 -144 179 40 59 110 78 168 44z
m-274 -39 c16 -12 17 -16 5 -24 -9 -6 -22 -6 -32 -1 -22 12 -54 -11 -46 -33 3
-9 24 -21 46 -27 52 -14 71 -34 71 -75 0 -24 -7 -39 -26 -54 -36 -28 -70 -26
-101 5 -25 25 -25 27 -8 37 14 7 20 7 23 -2 13 -38 82 -31 82 9 0 22 -36 50
-63 50 -22 0 -67 43 -67 65 0 24 46 65 73 65 13 0 32 -7 43 -15z m-202 -38
c16 -12 16 -15 3 -26 -10 -8 -17 -9 -22 -1 -9 15 -31 12 -50 -6 -20 -21 -6
-40 38 -49 57 -12 77 -31 77 -75 0 -65 -66 -101 -118 -64 -12 8 -22 21 -22 29
0 22 22 30 32 11 5 -9 22 -16 38 -16 24 0 31 5 36 27 8 30 -15 53 -52 53 -32
0 -74 37 -74 66 0 51 70 83 114 51z m3111 -34 c-4 -21 -7 -42 -8 -47 -2 -11
37 -24 75 -25 25 -1 28 3 34 39 5 30 11 40 25 40 11 0 19 -2 19 -5 0 -3 -17
-80 -45 -202 -6 -27 -35 -31 -35 -5 0 9 4 33 10 52 12 42 8 47 -51 55 l-46 7
-7 -47 c-7 -41 -27 -67 -42 -53 -4 5 29 180 41 216 2 6 12 12 21 12 13 0 15
-7 9 -37z m-3324 -95 c40 -51 76 -99 82 -105 6 -9 4 -15 -8 -19 -11 -5 -24 2
-38 20 -21 25 -23 26 -72 14 -44 -11 -50 -17 -55 -43 -3 -19 -12 -31 -24 -33
-15 -3 -18 1 -13 20 3 12 15 71 27 131 13 59 24 107 26 107 1 0 35 -42 75 -92z
m3641 58 c27 -8 35 -15 29 -24 -6 -10 -18 -11 -52 -3 -24 5 -44 9 -45 8 -1 -1
-4 -14 -7 -28 -6 -24 -4 -27 36 -35 27 -6 42 -15 42 -24 0 -16 -11 -17 -61 -6
-30 7 -32 5 -41 -31 l-9 -38 48 -15 c34 -11 45 -19 40 -28 -7 -10 -20 -10 -63
-1 -30 6 -57 14 -61 18 -6 5 29 167 47 219 5 13 19 11 97 -12z m-4042 -81 c17
-20 4 -38 -20 -25 -13 7 -24 5 -40 -8 -21 -17 -21 -19 -5 -35 9 -9 32 -17 51
-17 45 0 74 -29 74 -74 0 -39 -37 -76 -74 -76 -27 0 -66 27 -66 45 0 21 22 23
42 3 15 -15 23 -16 39 -8 11 6 23 18 26 27 9 22 -32 53 -68 53 -35 0 -69 31
-69 64 0 48 81 86 110 51z m4337 -9 c-49 -127 -52 -197 -10 -208 43 -11 61 8
88 96 17 57 31 86 40 86 21 0 19 -24 -11 -113 -23 -68 -31 -80 -59 -94 -39
-19 -76 -12 -105 19 -26 28 -26 74 2 160 17 53 26 68 41 68 12 0 17 -5 14 -14z
m-4532 -71 c29 -28 31 -51 9 -84 -10 -14 -13 -26 -7 -30 48 -31 83 -57 83 -63
0 -18 -48 -5 -85 23 -43 32 -53 26 -36 -23 12 -33 0 -62 -18 -42 -10 10 -71
193 -71 211 0 12 47 30 83 32 10 1 29 -10 42 -24z m4806 -85 c23 -52 45 -98
49 -103 3 -4 17 26 30 68 18 57 28 75 42 75 10 0 18 -4 18 -8 0 -15 -70 -216
-78 -224 -4 -4 -28 38 -52 93 -24 55 -47 102 -51 104 -3 3 -19 -29 -34 -70
-19 -53 -31 -72 -41 -68 -8 3 -14 8 -14 11 0 21 76 230 81 224 4 -4 26 -50 50
-102z m-5101 -95 c76 -76 91 -95 76 -101 -11 -4 -26 2 -41 16 -24 22 -24 22
-74 4 -47 -16 -51 -21 -51 -50 0 -20 -6 -34 -16 -38 -9 -4 -18 -5 -19 -4 -5 7
19 268 24 268 4 0 49 -43 101 -95z m5428 -28 c1 -48 7 -87 12 -87 4 0 33 27
63 60 38 43 59 59 71 54 9 -3 16 -9 16 -13 0 -3 -43 -49 -95 -101 l-95 -95 0
139 c0 106 3 137 13 134 8 -3 13 -33 15 -91z m281 -29 c36 -15 51 -26 48 -37
-4 -18 -9 -18 -58 3 -35 15 -36 15 -48 -10 -11 -24 -9 -26 29 -41 27 -11 40
-22 40 -35 0 -21 -7 -22 -40 -3 -39 22 -57 18 -69 -16 -6 -18 -11 -33 -11 -34
0 -1 18 -10 40 -20 36 -16 55 -45 29 -45 -8 0 -104 37 -117 45 -5 3 91 215 98
215 4 0 31 -10 59 -22z m171 -78 c26 -13 42 -29 46 -47 10 -38 -15 -77 -50
-81 -27 -3 -28 -5 -21 -49 4 -25 9 -52 12 -60 4 -11 0 -14 -13 -11 -14 2 -22
19 -33 68 l-14 65 -21 -43 c-13 -27 -26 -41 -36 -39 -8 2 -14 7 -13 13 3 19
92 204 98 204 3 0 24 -9 45 -20z m-6369 -176 c20 -24 -18 -30 -44 -6 l-22 20
-45 -22 c-38 -18 -46 -27 -50 -55 -3 -19 -11 -36 -17 -39 -10 -3 -13 28 -13
133 l0 136 89 -76 c50 -42 95 -83 102 -91z m6578 81 c26 -13 41 -33 41 -56 0
-17 -29 -9 -40 11 -6 12 -21 20 -35 20 -33 0 -33 -32 0 -72 30 -36 32 -81 5
-108 -44 -44 -130 -9 -130 52 0 23 4 29 17 26 10 -2 19 -12 21 -23 9 -47 53
-61 73 -24 9 18 6 28 -20 64 -17 24 -31 52 -31 62 0 30 29 59 63 62 4 1 21 -6
36 -14z m-7187 -261 c57 -41 104 -79 106 -83 6 -18 -28 -19 -50 -1 -23 18 -24
18 -71 -8 -45 -25 -48 -29 -42 -59 3 -18 4 -33 1 -33 -2 0 -11 -3 -19 -6 -12
-4 -16 15 -21 113 -4 65 -10 126 -12 136 -3 9 -3 17 0 17 3 0 52 -34 108 -76z
m-185 -126 c35 -56 61 -103 60 -105 -2 -1 -52 11 -113 27 -60 17 -112 30 -116
30 -4 0 10 -29 32 -65 43 -71 48 -85 26 -85 -11 0 -136 186 -136 203 0 3 50
-8 111 -25 61 -16 113 -27 116 -24 3 3 -13 34 -35 70 -38 59 -40 71 -12 75 3
1 33 -45 67 -101z m8163 -63 c62 -32 80 -129 34 -184 -14 -17 -43 -36 -64 -42
-103 -31 -198 102 -134 188 39 53 106 68 164 38z m-8434 -41 c51 -34 67 -99
39 -158 -20 -41 -63 -66 -114 -66 -122 0 -163 142 -65 219 33 26 104 28 140 5z
m8924 -312 c26 -22 33 -36 33 -62 0 -59 -62 -89 -112 -53 -26 18 -22 20 -66
-41 -8 -11 -20 -16 -30 -12 -14 5 -12 12 15 50 18 24 29 49 26 55 -4 6 -1 9 7
6 8 -4 26 12 46 40 18 25 36 45 39 45 4 0 23 -13 42 -28z m-9404 -83 c83 -44
112 -65 105 -72 -8 -8 -20 -8 -43 1 -26 10 -36 9 -52 -3 -56 -39 -59 -43 -52
-78 5 -26 3 -36 -9 -41 -9 -3 -18 0 -20 7 -4 12 -55 237 -55 243 0 8 14 2 126
-57z m9567 -45 c26 -20 47 -40 47 -45 0 -21 -24 -18 -56 6 l-36 28 -20 -21
-20 -20 35 -27 c19 -16 33 -34 30 -42 -7 -19 -17 -16 -54 14 l-32 27 -25 -29
-25 -29 39 -33 c30 -24 36 -35 27 -44 -12 -12 -22 -7 -82 43 l-32 27 72 91
c40 49 76 90 79 90 4 0 28 -16 53 -36z m-9751 -91 c41 -49 77 -93 81 -99 4 -7
-32 -6 -110 3 -64 7 -118 11 -121 8 -3 -3 8 -20 24 -38 75 -81 76 -83 60 -96
-11 -9 -28 5 -91 81 -42 51 -72 94 -66 96 7 2 57 -1 112 -8 56 -6 103 -9 106
-6 3 3 -16 30 -42 60 -29 34 -45 62 -41 71 3 8 7 15 10 15 3 0 38 -39 78 -87z
m9880 -229 c2 -2 26 23 53 56 53 63 62 69 71 45 4 -9 -24 -49 -73 -104 l-78
-91 -9 123 -9 122 -56 -63 c-47 -52 -59 -61 -69 -50 -9 11 5 33 71 108 l82 94
7 -118 c4 -65 8 -120 10 -122z m-10130 79 c11 -10 18 -30 18 -54 l0 -38 56
-11 c51 -11 55 -13 41 -27 -13 -13 -23 -14 -67 -3 -28 7 -53 10 -56 7 -3 -2 7
-19 22 -36 21 -25 24 -35 15 -44 -9 -9 -28 5 -82 63 -97 105 -97 104 -52 135
43 29 79 32 105 8z m10338 -168 l0 -109 58 57 c46 45 61 55 69 45 8 -10 -10
-35 -73 -103 l-84 -90 -1 95 c-1 52 -4 108 -8 124 l-6 30 -52 -59 c-44 -49
-55 -56 -67 -45 -14 10 -4 24 67 100 52 56 85 84 89 76 4 -6 8 -60 8 -121z
m-10513 58 c2 -6 -12 -23 -32 -39 l-36 -27 23 -24 22 -23 33 32 c26 25 36 29
45 20 9 -9 4 -20 -22 -47 l-34 -35 27 -27 27 -27 35 34 c28 27 37 32 48 21 10
-10 2 -21 -38 -58 l-49 -45 -78 84 c-42 45 -77 87 -78 92 0 12 83 86 94 82 6
-1 11 -7 13 -13z m10757 -174 c29 -23 39 -83 11 -73 -8 4 -15 12 -15 20 0 7
-10 20 -22 28 -19 13 -25 14 -36 2 -11 -11 -11 -19 2 -51 23 -53 20 -80 -10
-104 -35 -28 -69 -26 -99 4 -28 27 -32 62 -12 90 17 23 30 6 31 -40 1 -25 6
-31 27 -33 41 -5 52 17 34 68 -19 54 -19 69 2 92 21 24 54 23 87 -3z m-10996
-247 c-65 -1 -118 -6 -118 -10 0 -4 25 -30 57 -59 45 -40 55 -54 46 -64 -9 -9
-29 4 -91 59 -122 110 -124 102 19 102 l123 0 -57 58 c-44 44 -54 61 -46 69 9
9 33 -7 99 -70 l86 -82 -118 -3z m11346 -127 c3 -9 -10 -48 -30 -87 -19 -38
-34 -72 -31 -74 2 -2 38 8 81 22 57 19 81 23 89 15 7 -7 7 -14 2 -20 -13 -11
-236 -83 -242 -78 -5 6 110 237 118 237 4 0 10 -7 13 -15z m-11760 -133 c3 -5
-9 -25 -26 -46 -16 -20 -29 -38 -27 -39 2 -2 12 -9 23 -17 16 -13 21 -11 46
20 19 23 32 31 44 27 16 -6 14 -11 -13 -46 l-30 -38 22 -22 c31 -28 42 -27 67
9 21 29 44 38 54 22 5 -8 -70 -102 -83 -102 -9 0 -173 136 -173 145 0 4 14 27
33 51 31 42 52 54 63 36z m11975 -129 c0 -5 -26 -59 -58 -121 -48 -96 -59
-111 -70 -99 -10 13 -10 21 2 44 14 26 13 30 -16 66 -27 35 -34 38 -63 34 -22
-4 -37 -1 -45 9 -14 17 -16 16 116 48 110 26 135 30 134 19z m-12039 -94 c50
-39 90 -74 90 -79 0 -21 -20 -17 -56 10 -21 16 -42 30 -45 30 -3 0 -20 -18
-37 -39 l-32 -40 43 -33 c39 -30 52 -58 26 -58 -5 0 -50 32 -100 71 -72 57
-87 74 -78 85 9 11 17 9 47 -16 l35 -29 34 42 33 42 -34 28 c-21 17 -33 34
-29 43 3 7 7 14 9 14 3 0 45 -32 94 -71z m12136 -136 c-26 -143 -26 -142 43
-89 63 49 76 54 84 33 3 -8 -32 -41 -92 -84 -53 -39 -97 -66 -99 -60 -1 7 6
60 16 120 11 59 17 107 15 107 -2 0 -31 -20 -65 -45 -68 -49 -73 -51 -81 -32
-3 9 30 41 91 86 53 39 98 67 100 62 2 -5 -4 -49 -12 -98z m-5572 -240 c8
-317 4 -359 -37 -460 -89 -217 -333 -439 -504 -460 -209 -24 -498 277 -554
577 -8 47 -10 144 -4 353 l7 287 543 0 542 0 7 -297z m-2009 -976 l1440 -919
35 20 c19 11 678 428 1464 926 1223 776 1488 941 1430 887 -5 -5 -657 -419
-1449 -921 -792 -502 -1444 -916 -1448 -920 -5 -4 647 -425 1447 -936 800
-511 1456 -935 1456 -943 0 -9 -4 -10 -12 -4 -7 6 -667 427 -1466 937 l-1452
928 -48 -30 c-92 -57 -2848 -1805 -2874 -1824 -20 -14 -28 -16 -28 -6 0 7 659
431 1465 943 932 590 1461 932 1453 937 -159 94 -2873 1838 -2876 1847 -6 17
-198 138 1463 -922z m7879 911 c-84 -142 -138 -218 -148 -208 -8 8 -6 19 7 42
18 31 18 32 -11 72 -26 35 -35 41 -68 41 -65 0 -51 22 23 34 37 6 91 15 118
20 74 13 87 13 79 -1z m-7214 -148 c0 -59 0 -60 40 -82 22 -13 40 -27 40 -31
0 -5 -16 -27 -35 -50 -37 -42 -42 -67 -25 -113 13 -34 6 -41 -23 -25 -13 7
-42 14 -66 15 -43 3 -43 3 -37 -27 3 -16 6 -42 6 -57 0 -16 12 -40 28 -57 28
-31 51 -67 89 -140 31 -60 47 -56 39 8 -5 37 -3 57 8 74 8 12 16 39 18 60 4
55 26 65 83 37 25 -12 57 -22 70 -22 27 0 31 -10 14 -41 -12 -22 2 -51 49
-101 19 -21 22 -28 11 -32 -79 -23 -94 -33 -97 -59 l-3 -28 -30 26 c-17 14
-39 25 -49 25 -10 0 -22 5 -25 10 -15 24 -35 9 -35 -26 0 -29 9 -47 43 -85 23
-26 53 -62 66 -79 13 -18 36 -37 50 -43 14 -6 43 -25 63 -41 41 -31 54 -30 43
3 -4 13 -15 21 -29 21 -33 0 -54 20 -71 69 -19 56 -20 54 12 46 23 -5 32 0 63
36 20 23 41 39 47 36 6 -4 20 -27 32 -52 13 -28 28 -45 39 -45 9 0 24 -5 32
-10 12 -8 11 -13 -8 -33 -12 -13 -22 -27 -22 -32 0 -16 -33 -45 -52 -45 -36 0
-12 -54 42 -92 21 -15 46 -42 55 -61 9 -19 28 -45 42 -58 l26 -24 -13 24 c-6
12 -9 32 -6 44 3 11 0 29 -6 40 -7 14 -7 26 2 42 9 17 9 28 1 43 -31 59 1 94
85 91 33 -2 69 1 82 5 20 7 22 4 22 -29 0 -27 7 -42 28 -60 33 -30 37 -30 72
-5 21 15 30 30 32 58 2 27 7 36 18 34 8 -2 47 -3 87 -3 64 1 74 -1 84 -20 6
-12 8 -35 5 -53 -4 -17 -6 -38 -5 -46 2 -38 -1 -117 -6 -139 -6 -22 -4 -23 10
-11 9 8 28 35 41 62 15 29 40 58 63 74 46 30 72 84 41 84 -11 0 -24 6 -30 13
-13 16 -60 87 -60 91 0 2 13 9 30 14 19 7 34 23 43 44 8 18 22 40 31 48 16 13
21 11 47 -20 16 -19 29 -39 29 -44 0 -4 16 -5 35 -2 32 6 48 -5 26 -18 -5 -3
-12 -18 -16 -33 -9 -38 -34 -63 -62 -63 -15 0 -27 -8 -32 -22 -12 -32 -5 -35
27 -10 15 13 41 29 59 37 17 8 48 35 70 61 21 25 53 62 71 82 24 27 32 44 32
74 0 21 -2 38 -4 38 -16 0 -103 -44 -109 -56 -13 -24 -27 -16 -27 16 0 26 -5
31 -42 41 -24 7 -47 16 -52 20 -5 5 7 26 28 49 34 38 37 45 31 81 -6 36 -5 39
17 39 13 0 40 9 61 20 46 25 59 25 82 0 12 -13 15 -27 11 -45 -5 -18 -1 -34
13 -51 16 -21 18 -30 9 -54 -6 -19 -6 -40 -1 -57 9 -27 9 -27 33 23 25 52 59
102 97 144 16 18 24 43 28 85 l6 60 -46 -2 c-26 -1 -53 -7 -61 -14 -22 -18
-29 -2 -16 34 17 47 17 49 -30 102 l-42 48 22 16 c11 9 33 24 47 35 24 17 26
22 20 66 -8 57 2 67 46 44 20 -10 43 -14 62 -10 60 12 83 -38 51 -112 -13 -31
-13 -43 -3 -76 12 -35 11 -42 -9 -77 -23 -40 -28 -69 -12 -69 6 0 10 4 10 8 0
4 23 21 50 37 45 26 50 33 50 65 0 19 9 50 20 68 17 27 26 32 57 32 21 0 51 7
67 15 15 8 30 15 32 15 3 0 2 -22 -2 -50 -6 -49 -6 -49 30 -71 32 -18 49 -49
29 -49 -5 0 -27 -18 -50 -40 -37 -33 -43 -45 -43 -79 0 -48 -9 -55 -46 -36
-16 8 -37 12 -46 9 -10 -3 -27 0 -39 6 -19 10 -21 18 -17 61 3 27 3 49 1 49
-2 0 -16 -6 -31 -14 -43 -22 -79 -67 -91 -112 -6 -23 -18 -47 -26 -54 -22 -18
-109 -149 -103 -155 2 -3 22 13 43 35 28 29 47 40 68 40 20 0 43 12 68 35 59
53 77 46 99 -35 7 -25 19 -53 27 -62 13 -15 12 -18 -14 -31 -24 -13 -29 -24
-38 -79 -8 -53 -13 -63 -31 -66 -14 -2 -30 7 -46 26 -24 29 -25 29 -47 11 -31
-25 -45 -24 -38 3 3 11 -1 34 -9 49 -7 15 -14 44 -14 63 l0 36 -43 -33 c-24
-17 -55 -52 -70 -75 l-27 -44 57 2 c76 3 73 5 63 -31 -8 -28 -6 -32 26 -51 18
-11 34 -22 34 -24 0 -2 -17 -15 -39 -29 -29 -20 -42 -37 -51 -71 -13 -45 -29
-55 -50 -29 -7 8 -28 17 -49 21 -20 4 -42 11 -48 17 -15 11 -17 53 -3 62 18
11 10 25 -14 25 -13 0 -29 -7 -36 -15 -6 -8 -21 -17 -32 -21 -11 -3 -47 -27
-80 -53 -33 -25 -75 -56 -94 -68 -18 -13 -41 -37 -50 -55 l-17 -32 27 17 c14
9 37 24 50 33 14 9 40 14 62 12 30 -2 43 2 65 25 29 29 70 35 87 14 6 -6 14
-25 17 -40 4 -16 18 -35 31 -44 30 -19 17 -40 -30 -48 -29 -6 -31 -9 -34 -58
-5 -81 -17 -86 -78 -33 l-41 35 -28 -19 c-28 -18 -51 -18 -40 0 3 5 -2 25 -12
44 -13 29 -14 40 -4 62 16 35 2 30 -89 -37 -48 -34 -77 -65 -91 -93 -22 -42
-55 -75 -76 -76 -23 0 -13 28 12 34 17 4 31 21 46 54 11 26 27 60 35 76 23 47
19 59 -17 52 -17 -3 -42 -6 -55 -6 -12 0 -29 -7 -38 -15 -21 -22 -24 -19 -28
22 -3 34 -6 38 -43 49 -30 8 -49 8 -75 -1 -30 -10 -35 -17 -38 -48 -4 -42 -4
-42 -35 -23 -12 8 -43 17 -69 21 -43 6 -48 4 -48 -13 0 -39 58 -152 85 -164
22 -10 36 -38 19 -38 -18 0 -68 48 -80 76 -13 32 -87 98 -151 136 l-28 16 -2
-41 c0 -23 -4 -56 -8 -74 l-7 -32 -39 20 c-34 17 -40 18 -45 5 -8 -20 -71 -59
-83 -52 -5 4 -13 30 -16 60 -7 52 -8 54 -46 65 -45 14 -49 26 -14 53 14 11 25
28 25 38 0 25 27 50 54 50 13 0 35 -12 50 -27 21 -21 36 -27 64 -25 27 2 50
-5 85 -27 26 -17 47 -28 47 -25 0 11 -31 64 -38 64 -4 0 -45 29 -92 65 -47 35
-89 65 -93 65 -5 0 -20 9 -34 20 -23 18 -73 28 -73 15 0 -3 7 -16 15 -28 13
-20 13 -25 -1 -45 -8 -12 -23 -22 -32 -22 -10 0 -35 -9 -57 -20 -22 -11 -42
-20 -46 -20 -4 0 -10 18 -14 40 -5 32 -15 46 -51 72 -24 17 -44 33 -44 34 0 2
16 11 36 20 33 16 35 19 29 55 l-6 37 60 -5 c34 -3 61 -3 61 0 0 16 -54 83
-96 120 l-46 41 6 -31 c5 -20 1 -45 -8 -68 -9 -21 -16 -48 -16 -61 0 -29 -11
-30 -35 -4 -19 20 -19 20 -50 -10 -52 -51 -75 -35 -75 53 0 32 -5 41 -30 55
-16 9 -30 19 -30 22 0 3 9 23 20 45 11 22 20 49 20 60 0 25 18 45 40 45 10 0
33 -16 53 -35 23 -23 46 -35 64 -35 18 0 40 -12 65 -37 21 -20 40 -34 43 -32
6 7 -55 106 -86 139 -12 13 -29 45 -36 72 -14 46 -51 86 -109 116 -20 11 -21
9 -16 -38 5 -60 -10 -84 -47 -77 -14 3 -37 -1 -51 -8 -37 -21 -39 -19 -46 35
-6 45 -12 55 -56 92 l-50 41 41 36 c39 34 40 38 32 73 -10 44 -6 51 23 36 11
-7 41 -15 65 -18 53 -6 83 -40 86 -96 2 -33 9 -41 59 -75 59 -40 72 -33 41 21
-17 30 -19 74 -5 101 8 14 7 26 -3 46 -41 82 -21 137 47 126 23 -4 42 0 57 11
41 28 49 21 49 -44z m-554 -1653 l94 -98 0 116 0 115 25 0 25 0 -1 -172 0
-173 -120 125 -119 125 0 -118 0 -117 -25 0 -25 0 0 178 1 177 26 -30 c14 -16
68 -74 119 -128z m-366 16 l0 117 25 0 25 0 0 -172 0 -173 -120 122 -120 121
0 -114 0 -114 -25 0 -25 0 1 173 0 172 120 -124 119 -125 0 117z m-752 84 c21
-21 26 -36 26 -69 -2 -51 -33 -83 -93 -93 l-41 -7 0 -64 c0 -62 -1 -64 -25
-64 l-25 0 0 166 0 166 65 -4 c55 -3 70 -8 93 -31z m352 8 c0 -24 -2 -25 -65
-25 l-65 0 0 -40 0 -40 65 0 c58 0 65 -2 65 -20 0 -18 -7 -20 -65 -20 l-65 0
0 -60 0 -60 65 0 c58 0 65 -2 65 -20 0 -19 -7 -20 -90 -20 l-90 0 0 165 0 165
90 0 c89 0 90 0 90 -25z m3694 -160 c37 -82 70 -156 73 -162 3 -9 -4 -13 -21
-13 -21 0 -29 8 -42 40 l-16 40 -73 0 -72 0 -18 -40 c-14 -31 -24 -40 -43 -40
-15 0 -22 5 -19 13 32 81 152 325 158 320 3 -5 37 -75 73 -158z m415 1 c39
-88 71 -163 71 -168 0 -4 -11 -8 -23 -8 -19 0 -28 9 -40 40 l-15 40 -71 0 -71
0 -20 -40 c-15 -30 -26 -40 -45 -40 -23 0 -21 5 51 161 79 171 84 182 89 177
1 -2 34 -75 74 -162z m-789 -11 l0 -165 -25 0 -25 0 0 165 0 165 25 0 25 0 0
-165z m-710 -820 c0 -170 -4 -265 -10 -265 -6 0 -10 43 -10 110 l0 110 -501 0
-501 0 4 -167 c3 -146 7 -174 26 -217 20 -43 24 -47 39 -35 9 8 109 101 222
207 113 106 208 191 212 190 3 -2 59 -53 123 -115 l118 -111 -46 -27 c-53 -31
-93 -76 -102 -113 -11 -44 -15 -45 -49 -12 -42 41 -56 36 -130 -43 -32 -34
-91 -96 -133 -138 l-74 -77 58 -46 c82 -64 169 -109 214 -109 20 0 65 14 101
31 35 17 65 29 67 27 8 -8 -139 -75 -163 -75 -30 0 -142 55 -206 102 -95 69
-208 216 -263 342 l-31 71 -3 313 -3 312 520 0 521 0 0 -265z m-10 -285 c18
-6 11 -8 -25 -4 -58 5 -140 -16 -179 -47 -24 -19 -26 -24 -13 -36 12 -13 19
-12 48 6 19 12 39 21 44 21 6 0 -6 -10 -25 -21 -46 -28 -45 -26 -31 -42 9 -12
19 -10 58 9 56 29 85 30 139 5 52 -24 107 -91 74 -91 -5 0 -10 9 -10 20 0 11
-7 20 -15 20 -8 0 -15 4 -15 10 0 16 -45 40 -85 45 -49 7 -111 -23 -144 -67
-13 -18 -20 -24 -16 -13 11 30 11 58 0 62 -12 4 -43 -45 -55 -85 -6 -19 -9
-22 -9 -8 -1 11 11 39 25 63 20 35 23 47 13 59 -16 19 -36 2 -60 -51 -17 -36
-27 -116 -13 -103 3 4 19 2 35 -2 26 -8 31 -6 41 16 11 24 11 24 25 4 8 -11
21 -20 29 -20 8 0 14 -5 14 -11 0 -6 -7 -9 -15 -5 -12 4 -15 -4 -15 -38 0 -38
5 -48 35 -75 37 -32 36 -42 -1 -16 -12 8 -24 12 -27 9 -3 -3 -16 3 -28 15 -40
37 -34 12 7 -30 25 -27 31 -37 17 -30 -26 13 -55 53 -75 101 -14 33 -44 67
-52 59 -2 -2 2 -26 9 -52 14 -53 47 -104 65 -99 6 1 8 -2 5 -9 -7 -11 15 -31
69 -61 17 -9 26 -17 20 -18 -22 0 -108 65 -131 99 -34 50 -56 135 -49 185 10
64 50 140 91 171 67 52 164 75 225 55z m-117 -177 c-3 -7 2 -13 10 -13 24 0
50 -31 38 -43 -6 -6 -11 -20 -12 -31 -1 -18 -2 -17 -9 4 l-8 25 -1 -27 c-1
-19 7 -33 24 -44 25 -16 27 -16 46 5 17 18 18 25 9 36 -7 8 -9 15 -5 15 5 0 1
8 -7 18 -27 31 -30 42 -11 39 10 -1 23 -6 30 -10 8 -5 17 0 25 13 15 23 33 27
24 5 -3 -8 -2 -14 2 -13 4 1 17 -3 30 -10 12 -7 27 -10 32 -7 6 3 10 0 10 -9
0 -8 3 -22 7 -32 4 -11 2 -15 -8 -12 -15 5 -49 -50 -42 -69 3 -7 -1 -13 -8
-13 -7 0 -9 -3 -6 -6 4 -4 14 -1 23 7 15 12 16 11 10 -8 -12 -39 4 -48 30 -18
13 16 24 33 24 38 0 6 2 8 5 5 3 -3 -6 -27 -20 -53 -14 -26 -25 -44 -25 -40 0
5 -11 -2 -24 -14 -32 -30 -153 -45 -192 -23 -8 4 15 6 51 4 55 -4 65 -2 65 12
0 9 -6 17 -12 17 -7 1 -20 3 -28 4 -8 1 -25 3 -37 4 -22 1 -34 31 -13 31 6 0
10 4 10 9 0 13 -57 34 -72 25 -10 -5 -10 -4 -1 6 9 9 9 19 2 34 -9 17 -6 16
13 -5 27 -30 58 -48 74 -42 17 6 5 41 -16 48 -9 3 -22 17 -28 30 -6 14 -17 25
-23 25 -7 0 -9 10 -7 25 6 28 -6 34 -16 9 -4 -9 -9 -14 -12 -11 -3 3 2 17 11
31 9 14 14 29 12 33 -3 5 3 9 13 9 10 0 16 -6 13 -13z"/>
<path d="M12494 16500 c-47 -19 -68 -85 -43 -132 17 -31 71 -50 108 -37 68 24
79 122 18 159 -35 22 -50 23 -83 10z"/>
<path d="M13237 16449 c-11 -6 -25 -26 -33 -45 -12 -29 -12 -39 0 -68 34 -81
141 -74 165 10 22 77 -63 143 -132 103z"/>
<path d="M11310 16423 c-62 -23 -81 -103 -35 -148 43 -44 124 -26 146 32 25
67 -45 140 -111 116z"/>
<path d="M16579 15231 c-60 -60 -24 -151 60 -151 32 0 44 6 65 31 35 41 34 83
-3 120 -20 20 -39 29 -61 29 -22 0 -41 -9 -61 -29z"/>
<path d="M8147 15209 c-11 -6 -25 -26 -33 -45 -12 -29 -12 -39 0 -68 33 -78
133 -76 166 4 15 36 0 82 -34 105 -24 17 -73 19 -99 4z"/>
<path d="M12340 13383 c-24 -9 -61 -46 -76 -75 -14 -27 -19 -113 -8 -142 14
-37 77 -9 110 49 10 18 15 17 104 -19 97 -39 169 -48 209 -27 18 10 21 21 21
85 0 53 -4 77 -15 86 -12 10 -15 10 -15 -2 0 -7 -13 -29 -30 -48 -37 -44 -37
-50 0 -50 35 0 40 -19 9 -39 -32 -20 -58 -1 -104 76 -22 37 -52 75 -67 86 -27
20 -109 32 -138 20z"/>
<path d="M12011 13367 l-34 -12 2 -80 c1 -43 4 -82 6 -85 2 -3 52 -3 112 0
l108 5 2 81 2 81 -38 12 c-48 14 -116 13 -160 -2z"/>
<path d="M12765 13366 l-30 -13 3 -81 4 -82 108 0 108 0 7 66 c10 89 0 109
-61 118 -68 9 -105 7 -139 -8z"/>
<path d="M11940 13003 c1 -179 38 -347 73 -327 32 19 115 92 247 219 80 77
164 152 186 168 l40 27 165 -163 c190 -188 288 -267 301 -243 22 40 38 160 38
294 l0 142 -525 0 -525 0 0 -117z"/>
<path d="M12435 12973 c-65 -35 -72 -76 -20 -122 27 -23 45 -31 74 -31 51 0
71 24 71 83 0 37 -5 49 -26 66 -32 25 -58 26 -99 4z"/>
<path d="M12173 12751 c-66 -31 -70 -83 -7 -122 44 -27 97 -29 124 -4 29 27
27 89 -5 120 -29 30 -56 31 -112 6z"/>
<path d="M12656 12748 c-37 -32 -41 -92 -7 -119 54 -44 161 -10 161 51 0 72
-99 116 -154 68z"/>
<path d="M12430 12699 c-68 -52 -184 -171 -228 -232 l-32 -46 97 -64 c98 -65
161 -97 192 -97 25 0 211 107 261 150 l45 39 -116 113 c-64 62 -127 128 -140
147 l-24 33 -55 -43z"/>
<path d="M11950 10525 l0 -145 498 2 497 3 3 143 3 142 -501 0 -500 0 0 -145z"/>
<path d="M12405 10238 c-32 -17 -45 -39 -45 -76 0 -46 14 -69 53 -81 98 -33
169 86 90 149 -28 22 -67 25 -98 8z"/>
<path d="M12135 10008 c-32 -38 -29 -81 11 -115 58 -52 144 -13 144 65 0 52
-32 82 -87 82 -34 0 -46 -6 -68 -32z"/>
<path d="M10160 8038 c0 -1 -85 -437 -189 -968 -104 -531 -186 -969 -182 -973
4 -4 72 -6 151 -5 l144 3 93 519 c50 285 93 520 95 521 2 2 115 -250 252 -561
138 -310 254 -564 259 -564 10 0 44 73 317 673 112 246 207 444 210 440 4 -5
41 -231 84 -503 43 -272 80 -503 83 -512 4 -16 20 -18 148 -18 79 0 146 4 149
8 5 8 -332 1933 -340 1941 -2 3 -8 0 -14 -5 -5 -5 -147 -310 -315 -679 -169
-368 -310 -673 -313 -677 -4 -4 -142 300 -308 675 -250 566 -323 720 -324 685z"/>
<path d="M14385 8018 c-3 -7 -4 -443 -3 -968 l3 -955 145 0 145 0 5 614 5 615
644 -673 c366 -382 647 -669 652 -664 5 5 8 430 7 964 l-3 954 -145 0 -145 0
-5 -609 -5 -610 -639 670 c-352 368 -643 670 -648 672 -4 2 -10 -2 -13 -10z"/>
<path d="M17311 7925 c-352 -77 -613 -324 -723 -685 -29 -95 -36 -328 -14
-440 76 -372 371 -658 753 -731 95 -18 330 -6 422 20 89 26 186 67 224 93 l27
19 0 165 c0 136 -2 164 -14 164 -8 0 -45 -23 -81 -50 -139 -105 -244 -142
-403 -142 -195 0 -323 52 -457 187 -64 63 -89 98 -122 165 -55 113 -68 173
-67 310 1 174 37 282 139 417 82 110 223 203 353 233 73 17 235 14 307 -4 78
-21 206 -84 273 -136 29 -22 57 -38 63 -35 5 4 9 78 9 171 l0 165 -85 40
c-137 64 -252 89 -409 88 -72 0 -160 -7 -195 -14z"/>
<path d="M7595 7898 c-3 -7 -4 -416 -3 -908 l3 -895 145 0 145 0 0 905 0 905
-143 3 c-108 2 -144 0 -147 -10z"/>
<path d="M8545 7898 c-3 -7 -4 -416 -3 -908 l3 -895 410 0 410 0 0 135 0 135
-262 3 -263 2 -2 768 -3 767 -143 3 c-108 2 -144 0 -147 -10z"/>
<path d="M12384 7897 c-3 -8 -4 -300 -2 -648 4 -709 1 -679 79 -837 70 -143
205 -260 371 -320 67 -24 86 -27 223 -27 127 0 161 3 220 22 158 50 317 183
387 323 75 148 73 128 73 850 l0 645 -145 0 -145 0 -5 -635 c-6 -690 -5 -673
-64 -774 -68 -116 -221 -178 -381 -155 -141 20 -240 103 -287 239 -22 64 -23
76 -28 695 l-5 630 -143 3 c-114 2 -143 0 -148 -11z"/>
<path d="M5179 5548 c259 -568 592 -1115 980 -1608 668 -850 1500 -1556 2444
-2074 298 -163 577 -294 896 -421 1392 -551 2923 -701 4399 -430 635 116 1272
315 1856 580 1751 793 3170 2208 3967 3953 l28 62 -202 0 -202 0 -69 -137
c-927 -1869 -2611 -3293 -4606 -3895 -544 -164 -1055 -258 -1675 -310 -226
-19 -913 -16 -1152 5 -938 82 -1757 297 -2593 678 -1542 704 -2854 1973 -3611
3492 l-84 167 -202 0 -202 0 28 -62z"/>
<path d="M5674 5423 c579 -1147 1455 -2136 2535 -2862 980 -659 2095 -1077
3266 -1226 361 -46 574 -59 975 -59 601 0 1089 52 1649 175 2020 444 3807
1728 4862 3494 152 253 349 624 349 655 0 7 -2239 10 -6865 10 l-6866 0 95
-187z"/>
</g>
</svg>
