<?xml version="1.0" encoding="UTF-8" ?>
<!DOCTYPE svg PUBLIC "-//W3C//DTD SVG 1.1//EN" "http://www.w3.org/Graphics/SVG/1.1/DTD/svg11.dtd">
<svg width="2200pt" height="455pt" viewBox="0 0 2200 455" version="1.1" xmlns="http://www.w3.org/2000/svg">
<path fill="#c5b45b" d=" M 117.56 77.67 C 141.23 61.18 170.48 54.51 199.02 54.41 C 214.77 54.32 230.49 56.30 245.91 59.46 C 251.88 60.77 257.94 61.93 263.60 64.30 C 285.65 73.29 307.09 83.65 328.87 93.26 C 345.43 100.32 362.30 107.10 380.04 110.59 C 389.78 112.27 400.67 112.77 409.40 107.37 C 414.29 104.29 418.81 99.07 418.35 92.94 C 417.95 87.54 412.10 84.77 411.65 79.38 C 416.18 79.59 418.77 83.72 421.12 87.04 C 424.72 92.83 426.18 101.03 421.86 106.84 C 416.27 114.19 407.52 118.66 398.55 120.29 C 385.26 122.89 371.75 119.81 358.97 116.17 C 327.98 107.00 299.56 91.28 269.68 79.28 C 259.02 75.01 248.29 70.37 236.75 69.23 C 214.37 66.61 191.41 67.65 169.57 73.38 C 149.38 78.72 130.43 88.89 115.17 103.20 C 109.84 108.22 104.47 113.47 101.09 120.07 C 93.74 134.22 87.84 149.95 89.36 166.17 C 90.02 175.81 95.03 184.72 102.31 190.95 C 115.16 172.85 131.30 156.64 151.13 146.31 C 166.59 138.14 184.68 133.83 202.09 136.94 C 209.57 138.24 217.13 142.72 219.52 150.32 C 222.11 158.71 220.66 167.85 218.07 176.08 C 213.36 190.24 204.28 202.43 194.40 213.41 C 183.74 224.84 172.08 235.61 158.43 243.38 C 148.60 248.96 137.46 252.83 126.04 252.47 C 120.82 252.22 114.95 250.68 111.99 245.99 C 108.65 240.21 108.97 232.36 113.09 227.04 C 114.55 224.96 117.21 224.68 119.50 224.21 C 119.51 227.56 118.64 231.05 119.55 234.33 C 123.31 237.35 128.47 237.15 133.03 237.32 C 146.23 237.64 158.68 231.78 169.20 224.25 C 180.29 216.14 190.22 206.44 198.52 195.49 C 205.90 185.69 211.57 174.28 213.03 161.99 C 213.62 156.96 212.10 151.16 207.62 148.29 C 203.03 145.22 197.28 145.08 191.95 145.22 C 178.80 145.61 166.52 151.53 155.88 158.90 C 140.75 169.63 127.66 183.13 116.72 198.07 C 130.02 202.69 144.36 199.71 157.98 202.45 C 159.30 202.91 161.48 203.26 161.43 205.07 C 159.92 208.71 155.35 208.79 152.03 209.22 C 138.61 209.80 124.89 208.94 112.11 204.51 C 98.27 226.19 86.71 250.72 86.75 276.96 C 87.00 288.32 88.51 300.78 96.41 309.59 C 103.69 317.79 115.62 319.53 125.98 318.13 C 142.91 315.97 157.81 306.44 170.37 295.38 C 180.19 286.48 189.17 276.64 197.06 266.00 C 218.51 234.15 239.83 202.21 261.26 170.34 C 271.07 156.10 281.69 142.22 294.65 130.67 C 302.74 123.71 312.07 117.21 322.93 115.87 C 327.55 115.86 332.01 117.50 336.47 118.56 C 343.44 120.65 345.32 130.06 341.44 135.67 C 335.55 135.11 329.57 132.87 323.67 134.56 C 315.24 136.71 308.12 142.09 301.62 147.66 C 290.13 157.92 280.50 170.05 271.41 182.43 C 249.70 212.75 228.01 243.08 206.33 273.42 C 201.51 279.83 195.75 285.47 190.10 291.14 C 173.90 306.99 154.23 321.25 131.19 324.24 C 119.19 325.30 106.29 324.54 95.66 318.30 C 85.72 312.45 81.16 300.89 78.90 290.11 C 74.55 266.31 77.89 241.37 87.35 219.18 C 90.32 211.85 94.12 204.90 98.04 198.05 C 89.37 192.44 81.98 184.59 78.01 174.97 C 72.10 160.68 72.72 144.42 76.85 129.75 C 83.29 108.02 99.30 90.44 117.56 77.67 Z" />
<path fill="#c5b45b" d=" M 922.45 76.42 C 926.77 73.13 931.28 68.82 937.17 69.47 C 938.29 72.50 938.88 75.74 938.24 78.95 C 936.97 86.90 935.45 94.91 932.33 102.36 C 930.59 107.00 925.85 109.15 922.56 112.48 C 912.35 122.33 906.28 135.40 899.75 147.77 C 891.71 164.03 883.72 180.33 875.03 196.26 C 881.68 196.35 888.31 195.71 894.96 195.77 C 902.89 195.85 910.88 195.03 918.74 196.47 C 918.71 196.97 918.67 197.98 918.64 198.49 C 910.84 201.58 902.37 202.03 894.14 203.10 C 886.37 203.89 878.59 204.57 870.78 204.89 C 863.13 219.26 856.28 234.07 850.07 249.12 C 846.02 259.32 842.18 269.72 840.35 280.58 C 839.50 286.35 839.19 292.65 841.92 297.99 C 843.81 301.68 848.70 303.42 852.45 301.54 C 857.68 299.58 860.88 293.93 866.67 293.29 C 865.74 300.19 859.27 304.03 853.39 306.36 C 846.86 309.33 839.40 309.78 832.44 308.26 C 828.88 307.06 826.88 303.40 825.99 299.96 C 823.51 290.81 824.93 281.25 826.17 272.02 C 830.13 248.24 839.62 225.84 849.98 204.22 C 838.66 204.18 827.35 204.71 816.03 204.80 C 813.51 204.91 810.55 204.67 808.80 206.85 C 782.21 232.74 754.13 257.14 724.31 279.25 C 709.94 289.84 695.14 299.89 679.60 308.67 C 665.46 316.61 650.65 323.73 634.83 327.63 C 619.38 331.67 602.67 330.00 587.98 323.94 C 575.06 318.64 565.47 306.63 562.80 292.97 C 558.69 272.72 562.98 251.65 571.07 232.92 C 590.23 189.64 624.77 154.10 665.60 130.64 C 683.03 120.83 702.70 113.37 723.02 114.50 C 730.77 115.05 739.14 116.54 745.05 122.00 C 750.01 126.53 751.68 133.56 751.45 140.06 C 750.88 153.92 745.79 167.16 739.21 179.22 C 735.14 186.47 730.53 193.80 723.64 198.68 C 721.89 200.07 719.65 200.40 717.50 200.54 C 724.70 186.52 735.69 174.16 739.14 158.44 C 740.73 148.52 739.99 137.43 733.78 129.13 C 729.72 123.66 722.63 121.45 716.05 121.56 C 702.17 121.64 689.06 127.36 677.27 134.23 C 646.13 152.91 619.86 180.05 603.68 212.68 C 596.39 227.62 590.12 243.11 585.47 259.08 C 581.75 272.69 578.77 287.35 582.83 301.23 C 585.15 309.42 591.40 316.40 599.43 319.31 C 611.78 323.91 625.48 322.47 637.86 318.73 C 655.25 313.39 671.23 304.33 686.44 294.49 C 715.77 275.51 741.82 252.09 767.84 228.91 C 776.85 220.67 785.99 212.58 794.85 204.18 C 783.76 204.33 772.93 206.90 761.94 208.07 C 758.96 208.55 756.02 207.79 753.40 206.40 C 754.32 202.49 754.85 197.96 758.18 195.24 C 761.11 192.66 765.26 192.36 768.97 192.85 C 780.30 194.25 791.70 195.12 803.12 195.33 C 831.98 168.48 859.16 139.89 886.44 111.44 C 897.92 99.26 909.56 87.15 922.45 76.42 Z" />
<path fill="#ffffff" d=" M 892.69 123.70 C 895.19 121.38 897.71 119.10 900.29 116.86 C 884.21 142.77 867.62 168.41 853.18 195.28 C 841.12 195.31 829.08 194.57 817.02 194.74 C 842.22 171.03 867.51 147.42 892.69 123.70 Z" />
<path fill="#c5b45b" d=" M 366.49 130.48 C 369.85 127.54 373.50 124.39 378.04 123.62 C 381.51 124.12 383.40 127.82 383.62 131.00 C 382.78 134.29 380.87 137.16 379.12 140.02 C 360.64 168.77 337.48 194.14 318.68 222.66 C 315.45 227.61 312.38 232.68 310.09 238.14 C 321.20 230.63 332.00 222.65 343.05 215.04 C 355.99 206.07 368.79 196.75 382.91 189.70 C 388.44 187.13 394.69 184.32 400.87 186.25 C 406.67 187.37 408.37 195.27 404.17 199.14 C 396.08 210.08 387.95 220.99 379.93 231.98 C 373.57 240.98 367.45 250.28 363.27 260.53 C 361.49 265.12 360.03 270.09 360.72 275.06 C 361.00 277.28 362.48 279.74 364.96 279.86 C 369.88 280.29 374.51 278.07 378.68 275.72 C 386.91 270.90 393.96 264.38 400.72 257.73 C 404.04 254.64 404.97 250.01 407.15 246.19 C 414.42 232.74 424.71 221.19 435.59 210.57 C 446.18 200.66 458.08 191.23 472.36 187.50 C 479.00 186.01 486.68 185.34 492.66 189.22 C 496.64 191.71 499.32 196.25 499.19 201.00 C 498.98 209.08 494.75 216.50 489.21 222.17 C 479.80 231.94 467.71 238.56 455.70 244.61 C 444.83 249.60 432.92 254.47 420.72 252.64 C 416.74 260.25 415.04 269.09 416.69 277.57 C 417.65 281.81 420.59 285.73 424.81 287.14 C 432.03 289.85 439.92 287.79 446.73 284.89 C 459.79 279.07 470.74 269.64 481.56 260.49 C 491.43 252.06 500.51 242.72 508.53 232.51 C 510.32 230.51 512.08 227.58 515.12 227.65 C 518.21 228.95 515.83 232.64 514.63 234.60 C 504.23 248.68 491.73 261.14 477.99 271.96 C 465.31 281.75 451.63 291.30 435.71 294.76 C 425.82 297.04 415.24 293.81 407.50 287.49 C 400.95 282.15 399.48 273.14 400.46 265.17 C 391.65 273.20 382.78 281.39 372.41 287.40 C 366.64 291.06 358.87 290.38 353.25 286.77 C 348.37 283.55 346.35 277.58 345.69 272.03 C 344.32 261.21 347.90 250.46 352.97 241.04 C 360.28 227.75 368.65 215.09 376.21 201.96 C 347.24 216.30 322.32 237.90 301.56 262.50 C 294.54 271.83 288.69 282.09 280.72 290.68 C 278.31 293.87 273.64 292.91 270.51 291.48 C 267.53 290.09 267.80 286.32 268.70 283.70 C 270.82 277.61 274.46 272.22 277.50 266.57 C 297.78 230.87 317.79 194.92 341.25 161.18 C 348.93 150.40 356.78 139.57 366.49 130.48 Z" />
<path fill="#c5b45b" d=" M 1894.64 131.77 C 1899.09 129.15 1904.72 130.57 1908.86 133.15 C 1911.51 134.95 1910.40 138.66 1908.75 140.76 C 1904.09 146.76 1899.14 152.52 1894.42 158.46 C 1874.62 183.15 1853.84 207.27 1837.55 234.51 C 1831.25 245.35 1825.24 257.13 1825.34 269.99 C 1825.33 274.95 1826.82 280.82 1831.65 283.20 C 1837.07 285.51 1843.22 284.09 1848.60 282.32 C 1863.97 276.57 1876.23 265.11 1887.77 253.81 C 1892.98 247.97 1899.09 242.80 1902.92 235.87 C 1911.92 221.61 1922.54 208.38 1934.20 196.21 C 1940.98 189.54 1948.22 182.96 1957.04 179.11 C 1961.56 177.02 1966.71 176.70 1971.59 177.52 C 1976.18 178.40 1980.34 181.60 1981.89 186.08 C 1984.55 192.95 1983.00 200.38 1981.65 207.34 C 1990.46 209.35 1998.64 205.09 2006.41 201.57 C 2004.21 206.54 1999.00 208.90 1994.52 211.37 C 1989.92 213.75 1985.16 215.80 1980.41 217.84 C 1980.91 227.18 1975.62 235.34 1970.78 242.86 C 1962.09 255.52 1952.36 267.56 1941.06 278.00 C 1935.67 282.84 1929.73 287.25 1922.96 289.94 C 1917.32 292.27 1911.05 292.07 1905.10 291.56 C 1898.60 290.43 1894.66 284.36 1892.28 278.73 C 1889.39 272.09 1890.44 264.66 1892.00 257.83 C 1880.41 269.54 1867.74 280.71 1852.63 287.63 C 1844.91 290.93 1836.16 293.83 1827.81 291.28 C 1820.95 289.33 1816.62 282.76 1814.81 276.20 C 1812.47 267.46 1815.14 258.50 1817.04 249.96 C 1810.28 256.55 1803.67 263.30 1796.98 269.95 C 1789.69 277.43 1781.91 284.67 1772.70 289.73 C 1761.41 296.31 1744.99 291.88 1738.85 280.26 C 1735.31 273.56 1736.43 265.71 1737.83 258.59 C 1731.56 265.72 1724.92 272.57 1717.57 278.57 C 1711.44 283.41 1704.74 288.17 1696.91 289.58 C 1689.80 290.90 1682.57 287.38 1678.06 282.00 C 1672.13 274.89 1673.28 265.13 1673.95 256.56 C 1661.31 268.43 1649.73 281.95 1634.31 290.35 C 1627.84 294.13 1619.65 293.10 1613.26 289.72 C 1607.43 286.81 1602.36 281.73 1600.85 275.25 C 1599.39 268.67 1600.73 261.90 1602.58 255.54 C 1595.97 261.38 1589.16 267.17 1581.28 271.23 C 1574.26 274.67 1566.70 276.84 1559.11 278.53 C 1554.48 279.42 1550.97 282.75 1547.08 285.14 C 1538.58 290.82 1527.98 292.37 1517.96 291.67 C 1510.94 291.20 1503.98 287.92 1499.74 282.21 C 1493.32 273.76 1490.22 263.42 1487.27 253.38 C 1483.41 257.29 1478.37 259.66 1474.25 263.25 C 1467.34 268.88 1459.37 273.17 1450.81 275.67 C 1444.40 277.98 1437.04 278.06 1431.62 282.64 C 1423.53 288.96 1413.27 292.06 1403.05 291.82 C 1394.93 292.17 1386.31 289.40 1381.11 282.90 C 1374.37 274.42 1371.18 263.86 1368.18 253.63 C 1358.52 264.76 1348.49 275.91 1336.07 284.02 C 1330.00 287.90 1322.69 291.11 1315.37 289.32 C 1308.89 287.46 1303.03 282.71 1300.83 276.21 C 1298.55 269.79 1299.30 262.82 1300.44 256.25 C 1287.47 268.04 1275.96 281.88 1260.34 290.33 C 1253.88 294.13 1245.67 293.10 1239.27 289.73 C 1233.43 286.81 1228.36 281.73 1226.84 275.23 C 1225.25 268.10 1227.01 260.84 1229.05 253.99 C 1222.60 257.89 1214.22 259.16 1207.34 255.62 C 1199.00 251.40 1194.27 242.79 1190.55 234.61 C 1187.15 240.27 1184.55 246.39 1180.77 251.83 C 1173.99 262.09 1165.65 271.36 1155.97 278.95 C 1146.85 286.14 1135.73 291.50 1123.93 291.58 C 1118.37 291.76 1112.68 288.99 1110.03 283.99 C 1105.51 275.65 1105.94 265.74 1106.94 256.60 C 1096.83 266.44 1085.79 275.50 1073.41 282.33 C 1066.68 286.09 1058.80 288.45 1051.10 286.69 C 1044.52 285.80 1038.27 281.41 1036.39 274.85 C 1033.23 264.42 1036.91 253.55 1040.93 243.91 C 1047.91 227.97 1056.80 212.84 1067.48 199.09 C 1052.84 206.48 1040.02 216.94 1027.97 227.95 C 1009.44 244.67 992.89 264.42 983.86 287.95 C 982.66 292.27 977.26 292.47 973.76 291.20 C 969.95 289.48 969.12 284.63 969.98 280.94 C 972.57 268.35 977.30 256.30 982.76 244.69 C 990.40 228.84 998.11 213.02 1005.76 197.18 C 991.45 206.35 978.11 217.06 966.11 229.10 C 952.09 243.82 938.85 259.27 926.32 275.27 C 922.11 280.39 918.12 285.74 913.36 290.36 C 911.64 292.46 908.70 291.36 906.79 290.18 C 903.96 288.29 901.95 285.26 901.05 282.00 C 900.30 279.32 901.22 276.58 901.98 274.01 C 906.22 261.32 912.16 249.29 917.25 236.93 C 908.97 245.09 901.54 254.09 892.88 261.85 C 891.37 263.45 889.23 263.82 887.15 263.92 C 886.98 260.97 888.10 258.27 890.38 256.38 C 910.98 236.16 926.76 211.83 943.61 188.56 C 946.51 184.49 952.15 182.61 956.91 184.09 C 959.67 184.92 961.26 188.28 960.29 190.97 C 959.10 194.37 957.18 197.44 955.50 200.60 C 947.89 214.52 939.48 227.98 931.96 241.95 C 928.98 247.53 925.85 253.08 923.84 259.11 C 936.17 246.36 948.75 233.84 961.84 221.86 C 972.71 211.66 983.86 201.70 995.87 192.83 C 1001.22 189.03 1006.70 185.18 1012.92 182.94 C 1017.86 181.17 1024.08 182.13 1027.39 186.48 C 1029.67 189.20 1027.42 192.59 1026.25 195.27 C 1018.33 210.62 1008.87 225.19 1001.92 241.03 C 1011.79 233.24 1021.23 224.91 1030.89 216.86 C 1041.96 207.04 1053.97 198.19 1067.06 191.24 C 1073.36 188.23 1080.69 184.71 1087.74 187.27 C 1090.87 188.53 1095.04 191.67 1093.43 195.50 C 1079.73 215.08 1062.27 232.32 1052.37 254.38 C 1049.95 260.31 1047.20 266.81 1048.73 273.32 C 1049.79 277.40 1054.27 278.93 1058.02 279.32 C 1063.99 280.18 1069.66 277.51 1074.73 274.68 C 1086.48 267.91 1096.78 258.91 1106.11 249.12 C 1108.84 246.18 1111.97 243.45 1113.71 239.74 C 1121.37 223.70 1131.04 208.71 1140.97 193.99 C 1151.80 178.11 1163.14 162.44 1176.61 148.67 C 1182.25 143.19 1188.20 137.79 1195.34 134.33 C 1199.58 132.23 1204.62 131.35 1209.21 132.79 C 1212.49 134.06 1216.05 136.88 1215.81 140.77 C 1205.12 153.05 1193.80 164.78 1182.91 176.89 C 1169.94 191.05 1157.83 205.97 1146.30 221.31 C 1139.63 230.18 1133.15 239.28 1128.24 249.27 C 1124.89 256.27 1121.61 264.03 1122.96 271.96 C 1123.80 275.68 1125.38 280.18 1129.43 281.40 C 1135.03 282.46 1140.63 280.19 1145.41 277.42 C 1153.75 272.37 1160.63 265.26 1166.89 257.87 C 1173.83 249.14 1180.45 239.91 1184.51 229.44 C 1186.63 225.06 1183.67 220.50 1183.67 215.99 C 1183.32 207.48 1182.49 197.94 1187.55 190.55 C 1190.59 186.07 1196.64 185.40 1201.53 186.62 C 1204.25 187.38 1205.67 190.22 1205.92 192.87 C 1206.77 204.62 1202.54 215.85 1199.91 227.09 C 1200.70 232.99 1203.56 238.42 1206.40 243.58 C 1209.15 248.56 1215.36 251.68 1220.92 249.72 C 1227.05 247.98 1231.15 242.85 1235.76 238.82 C 1240.40 235.42 1242.97 230.13 1246.80 225.95 C 1258.39 212.49 1271.19 199.81 1286.16 190.10 C 1298.51 182.21 1313.33 176.14 1328.23 178.79 C 1334.45 180.02 1337.34 186.14 1338.83 191.67 C 1342.54 191.24 1346.82 190.34 1349.91 193.12 C 1351.92 194.86 1355.49 197.47 1353.42 200.41 C 1342.08 219.82 1327.52 237.30 1317.69 257.61 C 1315.25 263.23 1312.19 269.31 1313.59 275.61 C 1314.37 279.42 1317.71 283.33 1321.99 282.35 C 1329.93 280.84 1336.30 275.40 1342.37 270.41 C 1348.82 264.54 1355.30 258.59 1360.64 251.67 C 1365.87 244.95 1372.04 239.05 1377.60 232.62 C 1380.08 229.85 1381.96 226.46 1385.13 224.37 C 1389.56 221.49 1392.74 217.18 1396.67 213.70 C 1412.55 198.90 1428.33 184.00 1444.21 169.20 C 1448.92 165.20 1453.28 160.55 1458.87 157.75 C 1463.38 156.75 1469.90 158.65 1470.47 163.98 C 1471.49 170.16 1466.28 174.48 1463.05 179.00 C 1456.31 186.90 1454.21 197.36 1451.59 207.12 C 1446.71 228.17 1443.44 249.57 1438.25 270.56 C 1453.87 270.03 1467.87 261.47 1479.08 251.15 C 1486.89 244.25 1493.05 235.76 1500.76 228.77 C 1519.56 209.52 1539.71 191.66 1559.16 173.08 C 1565.00 167.93 1570.46 162.20 1577.16 158.14 C 1582.00 156.14 1589.88 158.78 1589.70 164.92 C 1590.15 170.80 1585.12 174.78 1582.09 179.18 C 1575.49 186.96 1573.40 197.22 1570.84 206.81 C 1565.87 227.96 1562.68 249.48 1557.39 270.56 C 1574.02 270.01 1588.63 260.39 1600.33 249.27 C 1608.44 241.67 1615.24 232.85 1622.23 224.25 C 1634.31 210.59 1647.55 197.61 1663.27 188.19 C 1674.88 181.29 1688.64 176.32 1702.28 178.80 C 1708.45 180.06 1711.35 186.11 1712.79 191.63 C 1716.02 191.44 1719.63 190.38 1722.59 192.26 C 1725.23 193.66 1727.00 196.14 1728.55 198.62 C 1719.73 213.57 1709.36 227.53 1700.18 242.25 C 1695.28 250.33 1690.41 258.63 1687.83 267.79 C 1686.57 272.31 1687.08 277.87 1690.82 281.11 C 1693.48 283.37 1697.22 282.30 1700.16 281.21 C 1706.48 278.64 1711.83 274.26 1716.98 269.88 C 1731.73 256.62 1744.53 241.40 1757.01 226.03 C 1768.67 212.37 1781.69 199.62 1796.83 189.85 C 1809.27 181.99 1824.24 175.96 1839.16 178.92 C 1844.51 180.10 1846.92 185.40 1848.26 190.19 C 1857.60 175.43 1866.96 160.59 1878.09 147.09 C 1882.98 141.40 1888.01 135.51 1894.64 131.77 Z" />
<path fill="#c5b45b" d=" M 2045.04 159.03 C 2048.44 156.28 2053.85 155.82 2057.30 158.74 C 2059.88 161.70 2058.87 166.19 2057.62 169.55 C 2053.85 177.86 2047.19 184.34 2042.28 191.94 C 2043.56 195.62 2047.04 197.96 2050.94 197.79 C 2059.68 198.75 2066.78 192.90 2073.89 188.83 C 2078.72 186.25 2084.52 190.08 2085.81 194.94 C 2086.04 196.11 2085.82 197.16 2085.15 198.11 C 2074.54 212.13 2062.73 225.29 2053.06 240.01 C 2048.35 247.43 2043.99 255.32 2042.21 264.00 C 2041.28 269.20 2041.37 275.07 2044.43 279.59 C 2046.54 282.65 2050.18 284.39 2053.87 284.54 C 2063.96 285.39 2073.48 280.94 2082.04 276.07 C 2094.09 268.89 2105.12 260.01 2114.90 249.94 C 2119.19 245.49 2122.95 240.53 2127.41 236.23 C 2128.41 234.81 2130.20 235.56 2131.67 235.49 C 2131.91 240.95 2127.44 244.45 2124.26 248.20 C 2111.69 262.80 2096.95 275.72 2080.02 285.03 C 2073.15 288.65 2065.84 291.98 2058.00 292.63 C 2050.71 293.22 2042.60 292.24 2037.10 286.95 C 2031.29 281.31 2029.97 272.76 2029.87 265.02 C 2030.18 248.80 2037.00 233.66 2044.71 219.71 C 2047.10 215.43 2049.81 211.34 2052.71 207.39 C 2049.75 207.25 2046.59 207.64 2043.92 206.18 C 2039.96 204.13 2037.87 200.01 2035.29 196.60 C 2022.12 213.60 2009.56 231.14 1995.03 247.04 C 1992.25 249.79 1989.66 253.45 1985.38 253.63 C 1985.63 247.55 1990.41 243.40 1994.00 239.04 C 2006.96 223.73 2019.41 207.85 2029.41 190.41 C 2032.76 185.05 2033.56 178.66 2036.04 172.93 C 2038.17 167.84 2040.62 162.55 2045.04 159.03 Z" />
<path fill="#ffffff" d=" M 1394.58 226.61 C 1409.11 210.66 1424.57 195.42 1441.82 182.41 C 1440.46 193.60 1439.92 204.89 1437.91 216.00 C 1435.46 229.86 1432.62 243.72 1428.14 257.08 C 1426.21 262.09 1424.38 267.62 1419.98 271.02 C 1414.61 274.78 1407.64 275.25 1401.34 274.40 C 1387.77 271.82 1378.17 256.67 1382.52 243.37 C 1385.37 237.05 1390.14 231.85 1394.58 226.61 Z" />
<path fill="#ffffff" d=" M 1515.55 224.59 C 1529.65 209.52 1544.35 194.87 1560.90 182.48 C 1559.04 207.05 1555.33 231.60 1547.96 255.16 C 1546.05 260.45 1544.30 266.17 1540.15 270.18 C 1535.22 274.46 1528.23 275.12 1521.99 274.60 C 1507.78 272.97 1497.11 257.16 1501.69 243.42 C 1504.92 236.26 1510.48 230.49 1515.55 224.59 Z" />
<path fill="#ffffff" d=" M 1307.34 196.36 C 1313.99 192.96 1321.33 190.01 1328.95 190.58 C 1331.88 190.65 1333.97 192.86 1335.91 194.78 C 1324.09 211.02 1312.37 227.32 1300.51 243.52 C 1291.12 255.35 1281.24 267.02 1269.23 276.30 C 1263.32 280.77 1256.61 284.85 1249.05 285.45 C 1245.50 285.77 1241.98 283.35 1241.14 279.87 C 1238.99 272.12 1241.31 263.93 1244.87 256.96 C 1250.89 245.26 1259.88 235.43 1269.10 226.17 C 1280.78 215.00 1293.00 204.05 1307.34 196.36 Z" />
<path fill="#ffffff" d=" M 1682.11 195.96 C 1688.53 192.76 1695.61 190.03 1702.92 190.58 C 1705.86 190.64 1707.96 192.85 1709.91 194.79 C 1698.08 211.04 1686.34 227.36 1674.46 243.58 C 1665.26 255.17 1655.58 266.60 1643.90 275.78 C 1637.79 280.50 1630.84 284.86 1622.96 285.45 C 1619.44 285.73 1615.97 283.32 1615.14 279.88 C 1612.84 271.60 1615.62 262.91 1619.57 255.60 C 1625.75 244.27 1634.57 234.68 1643.65 225.63 C 1655.39 214.47 1667.66 203.51 1682.11 195.96 Z" />
<path fill="#ffffff" d=" M 1816.21 197.16 C 1823.18 193.44 1830.86 190.19 1838.92 190.53 C 1841.68 190.46 1843.83 192.34 1845.91 193.91 C 1833.76 210.37 1821.44 226.70 1808.84 242.82 C 1799.72 253.94 1790.10 264.73 1779.28 274.23 C 1773.79 278.73 1768.04 283.50 1760.97 285.17 C 1757.26 286.28 1752.82 284.34 1751.65 280.54 C 1749.02 272.94 1751.41 264.72 1754.74 257.74 C 1760.95 245.32 1770.50 234.99 1780.33 225.34 C 1791.24 214.73 1802.89 204.65 1816.21 197.16 Z" />
<path fill="#ffffff" d=" M 478.40 196.69 C 481.97 196.05 486.19 195.55 489.39 197.64 C 491.72 198.97 490.23 201.93 489.67 203.88 C 484.48 217.52 472.45 226.97 460.33 234.28 C 451.03 239.74 441.04 245.32 429.99 245.60 C 428.89 245.50 425.53 245.84 426.73 243.89 C 435.97 229.19 448.44 216.75 462.05 206.07 C 467.04 202.25 472.34 198.58 478.40 196.69 Z" />
<path fill="#ffffff" d=" M 1937.58 217.57 C 1943.38 211.52 1949.83 205.33 1958.27 203.39 C 1962.32 209.03 1966.08 215.12 1971.91 219.14 C 1970.75 228.72 1964.69 236.67 1959.28 244.31 C 1950.50 255.69 1941.37 267.15 1929.62 275.62 C 1924.51 279.09 1918.48 282.49 1912.08 281.47 C 1907.87 280.55 1906.53 275.74 1906.33 271.99 C 1905.48 263.54 1909.80 255.82 1913.87 248.76 C 1920.72 237.62 1928.76 227.22 1937.58 217.57 Z" />
<path fill="#474747" d=" M 960.89 337.92 C 960.89 336.45 960.98 334.08 963.03 334.24 C 968.63 334.03 974.30 333.64 979.88 334.48 C 987.79 335.87 993.41 344.34 991.81 352.18 C 991.32 355.72 989.13 358.66 986.82 361.26 C 990.19 362.99 993.46 365.22 995.42 368.57 C 999.20 374.60 998.78 382.96 994.34 388.55 C 991.18 392.64 986.14 395.29 980.94 395.21 C 974.46 395.23 967.99 395.17 961.52 395.21 C 960.59 391.20 960.91 387.06 960.90 382.99 C 960.90 367.96 960.89 352.94 960.89 337.92 Z" />
<path fill="#474747" d=" M 1083.77 334.90 C 1085.97 333.70 1088.58 334.21 1091.00 334.09 C 1102.97 333.84 1114.98 333.71 1126.94 334.32 C 1129.23 334.42 1129.28 338.62 1126.93 338.65 C 1120.72 339.09 1114.48 338.66 1108.27 338.84 C 1108.27 357.38 1108.24 375.92 1108.29 394.45 C 1106.78 395.11 1105.24 395.10 1103.77 394.44 C 1103.83 375.91 1103.78 357.37 1103.79 338.84 C 1097.52 338.67 1091.23 339.07 1084.98 338.66 C 1083.30 338.10 1082.99 336.35 1083.77 334.90 Z" />
<path fill="#474747" d=" M 1143.76 334.58 C 1145.23 334.54 1146.71 334.53 1148.20 334.54 C 1148.34 343.88 1148.22 353.22 1148.27 362.57 C 1158.54 362.58 1168.81 362.59 1179.08 362.56 C 1179.37 353.19 1178.76 343.79 1179.43 334.44 C 1180.77 334.43 1182.12 334.45 1183.49 334.49 C 1184.08 353.65 1183.60 372.84 1183.74 392.01 C 1184.22 394.27 1182.27 395.92 1180.09 395.15 C 1178.79 393.74 1179.21 391.73 1179.11 390.00 C 1179.16 382.37 1179.13 374.75 1179.14 367.13 C 1168.87 366.69 1158.58 366.99 1148.30 366.95 C 1148.23 376.15 1148.27 385.34 1148.27 394.54 C 1146.74 395.07 1145.18 395.07 1143.67 394.51 C 1143.73 374.53 1143.58 354.55 1143.76 334.58 Z" />
<path fill="#474747" d=" M 1205.60 334.62 C 1211.31 333.22 1217.19 334.47 1222.98 334.01 C 1228.27 333.93 1233.61 333.57 1238.88 334.17 C 1240.69 334.11 1242.03 336.35 1240.76 337.84 C 1240.17 339.21 1238.21 338.54 1237.07 338.82 C 1228.08 338.83 1219.10 338.79 1210.12 338.83 C 1210.12 346.74 1210.11 354.66 1210.12 362.57 C 1218.73 362.71 1227.37 362.32 1235.97 362.74 C 1237.76 362.46 1238.08 366.12 1236.63 366.55 C 1235.25 367.41 1233.53 367.00 1232.02 367.14 C 1224.72 367.08 1217.42 367.12 1210.12 367.11 C 1210.12 374.97 1210.11 382.84 1210.12 390.70 C 1220.15 390.72 1230.18 390.67 1240.21 390.74 C 1240.51 391.30 1241.13 392.44 1241.44 393.01 C 1241.10 393.56 1240.43 394.64 1240.10 395.19 C 1229.34 395.18 1218.59 395.26 1207.84 395.17 C 1205.99 395.53 1205.18 393.59 1205.48 392.10 C 1205.53 372.94 1205.32 353.78 1205.60 334.62 Z" />
<path fill="#474747" d=" M 1283.40 334.34 C 1284.74 334.40 1286.10 334.49 1287.47 334.60 C 1287.85 354.56 1287.55 374.53 1287.63 394.50 C 1286.39 394.84 1285.15 395.09 1283.91 395.23 C 1282.86 393.69 1282.87 391.80 1282.89 390.03 C 1282.94 376.36 1282.90 362.69 1282.92 349.02 C 1282.96 344.13 1282.62 339.20 1283.40 334.34 Z" />
<path fill="#474747" d=" M 1448.27 334.39 C 1456.14 333.20 1464.11 334.54 1472.03 334.00 C 1475.57 333.74 1479.15 333.86 1482.63 334.70 C 1482.22 336.13 1483.00 338.66 1480.77 338.65 C 1470.98 339.09 1461.15 338.62 1451.35 338.86 C 1451.36 346.76 1451.33 354.66 1451.36 362.56 C 1460.39 362.61 1469.41 362.53 1478.44 362.62 C 1479.04 364.09 1479.44 366.79 1477.23 366.98 C 1468.61 367.32 1459.97 366.99 1451.35 367.11 C 1451.35 376.26 1451.36 385.41 1451.35 394.56 C 1449.80 395.08 1448.24 395.10 1446.76 394.43 C 1446.82 375.61 1446.78 356.79 1446.78 337.97 C 1446.84 336.78 1446.59 334.54 1448.27 334.39 Z" />
<path fill="#474747" d=" M 1515.44 334.75 C 1524.22 331.92 1534.36 333.55 1541.63 339.32 C 1551.34 346.74 1555.46 360.14 1552.61 371.90 C 1550.30 382.25 1542.31 391.43 1531.95 394.23 C 1522.90 396.84 1512.66 394.55 1505.55 388.39 C 1495.64 379.99 1492.04 365.14 1496.73 353.07 C 1499.76 344.55 1506.80 337.50 1515.44 334.75 Z" />
<path fill="#474747" d=" M 1569.72 334.71 C 1574.69 333.30 1579.87 334.24 1584.96 333.97 C 1589.93 333.95 1595.34 334.31 1599.39 337.56 C 1605.47 342.00 1607.94 350.56 1605.37 357.61 C 1604.07 361.84 1600.76 365.04 1597.14 367.38 C 1601.22 369.91 1604.74 373.93 1605.21 378.89 C 1605.40 382.33 1605.43 385.83 1606.45 389.16 C 1607.58 389.75 1608.72 390.34 1609.89 390.95 C 1609.27 392.74 1608.29 395.05 1605.94 394.29 C 1601.26 392.85 1601.20 387.02 1600.95 383.02 C 1601.15 378.83 1599.58 374.41 1595.83 372.19 C 1589.58 367.49 1581.44 369.54 1574.23 369.12 C 1574.22 377.46 1574.23 385.80 1574.22 394.15 C 1573.66 394.48 1572.54 395.15 1571.98 395.48 C 1571.40 395.16 1570.24 394.53 1569.66 394.21 C 1569.65 374.38 1569.55 354.54 1569.72 334.71 Z" />
<path fill="#474747" d=" M 1648.18 334.32 C 1659.75 333.26 1671.38 334.49 1682.97 333.91 C 1685.69 333.92 1688.68 333.51 1691.17 334.94 C 1692.16 336.59 1691.15 338.86 1689.13 338.75 C 1683.13 338.95 1677.12 338.73 1671.12 338.83 C 1671.11 357.23 1671.12 375.63 1671.12 394.04 C 1670.59 394.41 1669.54 395.15 1669.02 395.52 C 1668.43 395.18 1667.26 394.52 1666.67 394.18 C 1666.62 375.75 1666.65 357.31 1666.66 338.87 C 1660.46 338.63 1654.25 339.09 1648.08 338.66 C 1645.48 338.79 1645.60 334.08 1648.18 334.32 Z" />
<path fill="#474747" d=" M 1707.44 334.42 C 1708.77 334.42 1710.12 334.45 1711.49 334.50 C 1712.08 343.84 1711.54 353.22 1711.80 362.58 C 1722.06 362.56 1732.32 362.59 1742.58 362.56 C 1742.66 353.22 1742.47 343.88 1742.70 334.54 C 1744.18 334.71 1746.71 333.55 1747.06 335.75 C 1747.41 355.30 1747.05 374.88 1747.23 394.45 C 1746.13 394.77 1745.04 395.04 1743.95 395.25 C 1742.31 394.37 1742.61 392.51 1742.58 390.98 C 1742.59 383.00 1742.60 375.03 1742.59 367.05 C 1732.32 366.76 1722.04 366.97 1711.78 366.93 C 1711.65 375.61 1711.89 384.29 1711.68 392.97 C 1712.06 395.89 1706.83 396.12 1707.21 393.07 C 1707.04 379.05 1707.19 365.03 1707.14 351.01 C 1707.21 345.48 1706.89 339.93 1707.44 334.42 Z" />
<path fill="#474747" d=" M 1770.29 334.38 C 1778.80 333.33 1787.39 334.36 1795.93 333.89 C 1798.85 333.76 1801.78 334.09 1804.66 334.69 C 1804.21 336.02 1804.91 338.61 1802.81 338.67 C 1793.02 339.07 1783.20 338.62 1773.41 338.88 C 1773.43 346.77 1773.39 354.67 1773.43 362.56 C 1782.47 362.64 1791.52 362.45 1800.57 362.68 C 1800.48 363.99 1801.43 367.09 1799.16 366.94 C 1790.59 367.37 1781.99 366.97 1773.42 367.11 C 1773.42 374.97 1773.40 382.84 1773.43 390.70 C 1782.62 390.73 1791.82 390.69 1801.02 390.70 C 1802.48 390.52 1804.96 390.90 1804.56 393.00 C 1805.08 394.96 1802.35 395.25 1801.05 395.21 C 1790.55 395.24 1780.05 395.14 1769.56 395.24 C 1768.52 391.91 1768.84 388.41 1768.84 384.99 C 1768.86 369.31 1768.84 353.63 1768.84 337.96 C 1768.94 336.80 1768.65 334.52 1770.29 334.38 Z" />
<path fill="#474747" d=" M 1846.66 334.48 C 1847.83 334.44 1849.03 334.38 1850.24 334.46 C 1851.24 335.76 1851.11 337.44 1851.17 339.00 C 1851.11 356.69 1851.17 374.37 1851.14 392.06 C 1851.29 393.36 1850.56 395.41 1848.97 395.21 C 1847.01 395.88 1846.30 393.45 1846.53 392.04 C 1846.60 372.85 1846.35 353.66 1846.66 334.48 Z" />
<path fill="#474747" d=" M 1006.36 338.47 C 1004.14 336.39 1007.85 332.76 1009.71 335.29 C 1016.24 343.74 1022.19 352.64 1028.70 361.11 C 1035.16 352.20 1041.72 343.36 1048.12 334.40 C 1050.00 334.39 1052.84 335.62 1051.34 337.94 C 1045.12 347.00 1038.31 355.69 1031.94 364.65 C 1030.41 366.79 1031.00 369.56 1030.95 372.01 C 1031.29 377.34 1030.70 382.68 1031.03 388.02 C 1031.01 390.40 1031.46 393.06 1030.03 395.16 C 1028.53 395.61 1026.40 394.97 1026.65 393.07 C 1026.45 384.67 1026.71 376.26 1026.57 367.85 C 1026.68 366.65 1026.11 365.61 1025.45 364.68 C 1019.12 355.93 1012.57 347.32 1006.36 338.47 Z" />
<path fill="#474747" d=" M 1327.11 334.99 C 1327.88 334.82 1329.42 334.47 1330.18 334.30 C 1337.90 353.35 1344.75 372.77 1351.98 392.02 C 1353.28 394.35 1350.00 396.53 1348.30 394.54 C 1345.83 389.80 1344.44 384.57 1342.42 379.63 C 1333.37 379.60 1324.32 379.64 1315.27 379.61 C 1313.12 384.77 1311.40 390.10 1309.12 395.21 C 1308.23 395.20 1306.46 395.17 1305.57 395.15 C 1305.03 391.91 1306.65 389.00 1307.69 386.06 C 1312.55 373.08 1317.41 360.10 1322.25 347.11 C 1323.89 343.08 1324.96 338.79 1327.11 334.99 Z" />
<path fill="#474747" d=" M 1360.70 393.09 C 1368.11 373.53 1375.09 353.81 1382.84 334.38 C 1384.22 334.77 1386.41 334.29 1386.74 336.23 C 1393.58 354.09 1400.12 372.08 1406.90 389.96 C 1407.74 391.71 1407.60 393.65 1407.38 395.52 C 1406.53 395.31 1404.84 394.89 1403.99 394.68 C 1401.43 389.89 1400.15 384.53 1397.93 379.59 C 1388.92 379.82 1379.88 379.29 1370.90 379.83 C 1368.67 384.27 1367.52 389.15 1365.41 393.64 C 1365.01 395.21 1363.19 395.04 1362.00 395.49 C 1361.67 394.89 1361.03 393.69 1360.70 393.09 Z" />
<path fill="#474747" d=" M 1888.93 336.91 C 1889.32 334.78 1891.26 334.50 1893.13 334.37 C 1900.86 353.80 1907.78 373.56 1915.32 393.08 C 1914.99 393.70 1914.34 394.94 1914.01 395.57 C 1912.80 395.01 1911.03 395.07 1910.57 393.60 C 1908.52 389.09 1907.34 384.23 1905.12 379.80 C 1896.12 379.34 1887.08 379.76 1878.07 379.61 C 1876.13 384.25 1874.65 389.07 1872.63 393.67 C 1872.15 395.40 1870.30 395.42 1868.89 395.16 C 1867.52 393.30 1868.60 391.25 1869.26 389.38 C 1875.88 371.92 1882.31 354.38 1888.93 336.91 Z" />
<path fill="#474747" d=" M 1946.13 335.00 C 1946.90 334.82 1948.45 334.47 1949.22 334.29 C 1952.76 342.01 1955.26 350.15 1958.40 358.04 C 1962.56 369.40 1966.98 380.67 1971.03 392.06 C 1972.56 394.81 1967.99 396.78 1967.04 393.96 C 1964.84 389.32 1963.37 384.38 1961.45 379.62 C 1952.41 379.61 1943.38 379.63 1934.34 379.61 C 1932.02 384.71 1930.73 390.26 1927.98 395.16 C 1926.00 395.86 1923.37 394.41 1924.59 392.13 C 1928.77 380.24 1933.40 368.51 1937.74 356.67 C 1940.63 349.49 1942.80 341.99 1946.13 335.00 Z" />
<path fill="#ffffff" d=" M 1519.46 338.58 C 1526.43 337.12 1533.90 339.06 1539.34 343.65 C 1548.62 351.30 1551.46 365.46 1546.07 376.19 C 1542.83 382.95 1536.60 388.41 1529.21 390.04 C 1520.27 392.24 1510.54 388.17 1505.05 380.96 C 1497.31 371.24 1497.61 356.09 1505.79 346.71 C 1509.28 342.59 1514.17 339.68 1519.46 338.58 Z" />
<path fill="#ffffff" d=" M 965.55 338.93 C 972.07 339.16 980.42 336.93 985.06 342.95 C 989.67 348.34 986.88 357.44 980.20 359.56 C 975.41 360.71 970.42 360.08 965.56 360.10 C 965.58 353.04 965.59 345.99 965.55 338.93 Z" />
<path fill="#ffffff" d=" M 1574.23 338.84 C 1579.47 338.88 1584.72 338.64 1589.97 338.92 C 1596.52 339.20 1602.14 345.40 1601.82 351.95 C 1601.79 357.99 1596.98 363.61 1590.96 364.39 C 1585.40 364.94 1579.80 364.51 1574.23 364.62 C 1574.23 356.03 1574.22 347.43 1574.23 338.84 Z" />
<path fill="#ffffff" d=" M 1316.98 374.87 C 1320.88 364.34 1324.85 353.84 1328.85 343.35 C 1332.82 353.85 1336.70 364.38 1340.68 374.88 C 1332.78 374.88 1324.87 374.91 1316.98 374.87 Z" />
<path fill="#ffffff" d=" M 1372.58 374.87 C 1376.43 364.31 1380.59 353.86 1384.38 343.28 C 1388.43 353.76 1392.31 364.31 1396.24 374.84 C 1388.35 374.93 1380.46 374.88 1372.58 374.87 Z" />
<path fill="#ffffff" d=" M 1891.75 343.26 C 1895.51 353.86 1899.60 364.33 1903.49 374.88 C 1895.58 374.88 1887.67 374.92 1879.77 374.86 C 1883.78 364.33 1887.66 353.76 1891.75 343.26 Z" />
<path fill="#ffffff" d=" M 1936.03 374.88 C 1939.93 364.37 1943.87 353.88 1947.89 343.43 C 1951.92 353.88 1955.78 364.41 1959.71 374.90 C 1951.82 374.86 1943.92 374.90 1936.03 374.88 Z" />
<path fill="#ffffff" d=" M 965.60 364.81 C 971.83 365.02 978.22 364.04 984.35 365.49 C 992.96 367.86 996.26 379.86 990.02 386.30 C 983.82 393.20 973.69 389.98 965.59 390.69 C 965.57 382.06 965.55 373.44 965.60 364.81 Z" />
</svg>
